#!OML:ASF H:\GeneralSubjects\Female5\Project 1\Capture day 1\Session 1\Female5.ASF
:FULLY-SPECIFIED
:DEGREES
1
root -27.5588 15.8575 6.48685 -168.493 -31.9082 -176.782
lowerback 8.68087 1.89734 -4.2297
upperback -9.31411 1.53272 0.17521
thorax -15.4271 1.02769 2.27997
lowerneck -13.6354 -8.19733 -14.6807
upperneck 19.7308 -14.2864 20.659
head 11.3305 -6.18461 7.85717
rclavicle 5.2181e-014 3.53837e-014
rhumerus -47.9096 23.6081 -86.832
rradius 40.9605
rwrist -11.6199
rhand -24.3063 -13.4078
rfingers 7.12502
rthumb 2.18157 -43.3764
lclavicle 5.2181e-014 3.53837e-014
lhumerus -40.7503 16.8793 66.1622
lradius 21.7102
lwrist -22.54
lhand -34.5938 38.8426
lfingers 7.12502
lthumb -7.75276 68.6805
rfemur -22.6802 24.3752 15.2369
rtibia -8.18095
rfoot -28.6224 -31.7945
rtoes 15.2749
lfemur -13.7486 -7.73395 -26.9007
ltibia 21.26
lfoot -24.2654 12.8046
ltoes -74.9912
2
root -27.5227 15.8713 6.55909 -168.766 -31.5075 -176.424
lowerback 8.7041 1.84696 -4.24621
upperback -9.18073 1.48957 0.275079
thorax -15.279 1.01823 2.41063
lowerneck -14.4024 -8.24459 -14.2949
upperneck 20.3394 -14.3242 20.1279
head 11.6362 -6.15515 7.57704
rclavicle -3.50606e-014 4.37326e-015
rhumerus -48.1894 24.1541 -87.3262
rradius 41.0762
rwrist -11.6885
rhand -24.1587 -13.1235
rfingers 7.12502
rthumb 2.32412 -43.0906
lclavicle -3.50606e-014 4.37326e-015
lhumerus -40.9438 17.8088 65.2254
lradius 21.2523
lwrist -23.7907
lhand -33.0098 36.6141
lfingers 7.12502
lthumb -6.22364 66.5026
rfemur -22.7747 24.5308 15.0247
rtibia -6.88578
rfoot -26.7325 -31.8823
rtoes 10.7559
lfemur -12.7201 -9.23759 -26.6533
ltibia 19.0376
lfoot -24.0641 14.009
ltoes -72.7964
3
root -27.4839 15.8858 6.63577 -168.84 -31.1519 -176.166
lowerback 8.61352 1.69611 -4.35652
upperback -9.13522 1.29499 0.452292
thorax -15.1596 0.950696 2.71617
lowerneck -14.9941 -8.17681 -14.0468
upperneck 20.9281 -14.1696 19.5935
head 11.8708 -6.06213 7.36149
rclavicle -8.72168e-014 -6.36111e-015
rhumerus -47.9531 25.0727 -87.9048
rradius 40.6489
rwrist -11.6291
rhand -23.8665 -13.0483
rfingers 7.12502
rthumb 2.60628 -43.0121
lclavicle -8.72168e-014 -6.36111e-015
lhumerus -41.3875 19.2268 64.1003
lradius 20.8121
lwrist -25.1411
lhand -31.5015 35.2484
lfingers 7.12502
lthumb -4.76737 65.1747
rfemur -23.0861 24.5953 14.6392
rtibia -5.22745
rfoot -25.9136 -32.0814
rtoes 6.24107
lfemur -11.9286 -10.8642 -26.5061
ltibia 16.9731
lfoot -24.1564 15.1724
ltoes -69.7601
4
root -27.4565 15.898 6.70218 -169.012 -30.6849 -175.92
lowerback 8.70101 1.46136 -4.54507
upperback -9.19301 0.963929 0.71826
thorax -15.2723 0.837109 3.19442
lowerneck -15.2648 -7.82683 -13.8734
upperneck 21.434 -13.6852 19.2845
head 11.9703 -5.83836 7.31866
rclavicle 4.13224e-014 1.59028e-015
rhumerus -48.9352 26.4987 -88.7609
rradius 41.1575
rwrist -11.6624
rhand -23.3312 -13.3222
rfingers 7.12502
rthumb 3.12329 -43.2791
lclavicle 4.13224e-014 1.59028e-015
lhumerus -42.3181 20.6612 62.8893
lradius 20.6751
lwrist -26.1107
lhand -28.0288 34.4965
lfingers 7.12502
lthumb -1.41372 64.4716
rfemur -22.9603 24.7976 14.3188
rtibia -3.90126
rfoot -25.3878 -33.2057
rtoes 1.92619
lfemur -9.4794 -14.9447 -26.7324
ltibia 12.5592
lfoot -24.9171 18.3676
ltoes -63.6471
5
root -27.4278 15.9075 6.75815 -169.298 -30.3127 -175.585
lowerback 8.69226 1.35189 -4.15687
upperback -9.13056 0.863056 0.573367
thorax -15.1599 0.734589 2.83444
lowerneck -15.5633 -7.6377 -13.3263
upperneck 21.6888 -13.5715 19.1874
head 12.0542 -5.74143 7.20757
rclavicle -3.53588e-014 -4.77083e-015
rhumerus -49.0495 26.6908 -89.6106
rradius 40.8824
rwrist -11.5289
rhand -23.0134 -13.8132
rfingers 7.12502
rthumb 3.43013 -43.7653
lclavicle -3.53588e-014 -4.77083e-015
lhumerus -42.3992 20.7794 62.2505
lradius 20.8141
lwrist -26.0868
lhand -27.0569 33.8507
lfingers 7.12502
lthumb -0.475078 63.8299
rfemur -22.9328 24.9776 14.1929
rtibia -2.26248
rfoot -22.9714 -36.0995
rtoes -6.95308
lfemur -9.51569 -14.676 -26.3974
ltibia 12.4487
lfoot -24.6515 18.8545
ltoes -59.2901
6
root -27.3978 15.919 6.80635 -169.592 -30.0533 -175.279
lowerback 8.66624 1.35083 -4.08281
upperback -9.16247 0.887685 0.717207
thorax -15.1854 0.747902 2.94991
lowerneck -15.5326 -7.52884 -13.2634
upperneck 21.951 -13.3979 18.9031
head 12.0787 -5.68218 7.12785
rclavicle -3.43152e-014 -3.57812e-014
rhumerus -49.7032 27.0984 -89.9881
rradius 40.8957
rwrist -11.7898
rhand -22.6662 -15.0224
rfingers 7.12502
rthumb 3.76543 -44.9689
lclavicle -3.43152e-014 -3.57812e-014
lhumerus -42.6872 20.8853 62.2841
lradius 21.0997
lwrist -25.8586
lhand -27.1416 34.052
lfingers 7.12502
lthumb -0.556874 64.031
rfemur -21.828 23.177 15.0186
rtibia -0.59746
rfoot -26.2722 -33.1942
rtoes -0.0331907
lfemur -9.60808 -14.3595 -26.0462
ltibia 12.5059
lfoot -24.5341 19.0336
ltoes -58.8968
7
root -27.3629 15.923 6.85438 -169.72 -29.6907 -175.27
lowerback 8.47077 1.38623 -4.28144
upperback -9.1188 0.924199 0.794157
thorax -15.02 0.788148 3.14101
lowerneck -15.4453 -7.44683 -13.1758
upperneck 22.0455 -13.2358 18.6301
head 12.0299 -5.62751 7.03847
rclavicle 1.10822e-014 3.89618e-014
rhumerus -49.9821 27.5531 -90.264
rradius 40.8943
rwrist -12.1424
rhand -21.8568 -15.889
rfingers 7.12502
rthumb 4.54701 -45.8202
lclavicle 1.10822e-014 3.89618e-014
lhumerus -42.6802 20.8251 62.6578
lradius 21.4254
lwrist -25.2462
lhand -27.1228 34.0578
lfingers 7.12502
lthumb -0.538713 64.0368
rfemur -21.0081 19.9485 15.9309
rtibia 1.12259
rfoot -25.2965 -31.4561
rtoes 0.920995
lfemur -9.57405 -14.5094 -26.0442
ltibia 12.4021
lfoot -25.0171 19.068
ltoes -58.1155
8
root -27.3318 15.9264 6.89145 -169.94 -29.4953 -175.368
lowerback 8.57199 1.34951 -4.35283
upperback -9.1078 0.856198 0.765943
thorax -15.0671 0.763644 3.16359
lowerneck -15.6558 -7.46089 -13.0098
upperneck 22.3091 -13.3328 18.5484
head 12.1745 -5.65723 6.96486
rclavicle -3.3371e-014 1.35174e-014
rhumerus -50.152 27.7835 -90.5781
rradius 40.813
rwrist -12.3539
rhand -21.5042 -15.608
rfingers 7.12502
rthumb 4.88754 -45.5317
lclavicle -3.3371e-014 1.35174e-014
lhumerus -42.339 20.0172 63.5649
lradius 21.8638
lwrist -23.9551
lhand -25.2425 32.8695
lfingers 7.12502
lthumb 1.27736 62.8454
rfemur -19.9018 17.5837 16.4347
rtibia 2.76644
rfoot -25.5431 -30.4415
rtoes 0.436908
lfemur -9.35596 -14.7643 -26.1575
ltibia 12.2706
lfoot -25.3423 18.9729
ltoes -57.4344
9
root -27.3003 15.9302 6.93003 -170.133 -29.232 -175.34
lowerback 8.51556 1.33967 -4.35462
upperback -9.11565 0.843921 0.784077
thorax -15.0398 0.757648 3.18819
lowerneck -15.7415 -7.41589 -12.8698
upperneck 22.5489 -13.3113 18.3901
head 12.2546 -5.64758 6.88896
rclavicle 8.54774e-015 -1.51076e-014
rhumerus -50.3853 28.0547 -90.8916
rradius 40.7437
rwrist -12.6044
rhand -21.1287 -15.8214
rfingers 7.12502
rthumb 5.25004 -45.7364
lclavicle 8.54774e-015 -1.51076e-014
lhumerus -42.1302 19.441 64.2694
lradius 22.279
lwrist -23.0304
lhand -24.6972 32.476
lfingers 7.12502
lthumb 1.80404 62.4481
rfemur -18.9955 15.9 16.6946
rtibia 4.40661
rfoot -26.7499 -29.5298
rtoes 1.96882
lfemur -9.23144 -14.9009 -26.1209
ltibia 12.1283
lfoot -25.5475 19.0955
ltoes -57.3167
10
root -27.2687 15.9326 6.96478 -170.321 -28.9778 -175.327
lowerback 8.44884 1.32673 -4.32294
upperback -9.13371 0.830271 0.792327
thorax -15.0167 0.746319 3.1833
lowerneck -15.8363 -7.36353 -12.722
upperneck 22.8156 -13.2866 18.2276
head 12.346 -5.63629 6.81158
rclavicle -4.47266e-014 -1.35174e-014
rhumerus -50.5618 28.2795 -91.1733
rradius 40.6726
rwrist -12.8363
rhand -20.8389 -15.9421
rfingers 7.12502
rthumb 5.52985 -45.85
lclavicle -4.47266e-014 -1.35174e-014
lhumerus -41.837 18.7073 65.1212
lradius 22.7512
lwrist -22.0226
lhand -24.4246 32.2279
lfingers 7.12502
lthumb 2.0673 62.1976
rfemur -18.0621 14.4815 16.8184
rtibia 5.97053
rfoot -28.1114 -28.8798
rtoes 3.48598
lfemur -9.0603 -15.0925 -26.0982
ltibia 11.9348
lfoot -25.7263 19.2899
ltoes -57.5413
11
root -27.2368 15.9342 6.9958 -170.508 -28.7317 -175.334
lowerback 8.38178 1.31281 -4.29265
upperback -9.16107 0.815617 0.815505
thorax -15.005 0.73575 3.19632
lowerneck -15.9674 -7.32071 -12.5983
upperneck 23.1339 -13.2668 18.0365
head 12.4659 -5.62927 6.72774
rclavicle -4.4329e-014 2.14687e-014
rhumerus -50.6787 28.4953 -91.3927
rradius 40.5807
rwrist -13.0086
rhand -20.6642 -16.0776
rfingers 7.12502
rthumb 5.69853 -45.981
lclavicle -4.4329e-014 2.14687e-014
lhumerus -41.4977 17.8976 66.0961
lradius 23.2773
lwrist -20.9946
lhand -24.4827 32.1643
lfingers 7.12502
lthumb 2.01118 62.1346
rfemur -17.0694 13.3448 16.8131
rtibia 7.40487
rfoot -29.7633 -28.3018
rtoes 5.51254
lfemur -8.84968 -15.3025 -26.09
ltibia 11.7076
lfoot -25.8827 19.5274
ltoes -57.9804
